# xmcd
#
# Track frame offsets: 
#        150
#        19816
#        38892
#        55496
#        74138
#        93634
#        104414
#        127553
#        152783
#        173717
#        196925
#
# Disc length: 2798 seconds
#
# Revision: 0
# Processed by: cddbd v1.5.2PL0 Copyright (c) Steve Scherf et al.
# Submitted via: ExactAudioCopy v0.99pb3
#
DISCID=950aec0b
DTITLE=Al and The Transamericans - This Day and Age
DYEAR=2008
DGENRE=Folk/Rock
TTITLE0=Somewhere in Kansas
TTITLE1=Grass is Greener
TTITLE2=Everything Here
TTITLE3=Another Home
TTITLE4=Time
TTITLE5=Blue Eyed Angel
TTITLE6=Waiting for the Rain
TTITLE7=Light of the Moon
TTITLE8=When You Were Beautiful
TTITLE9=Some of the Parts
TTITLE10=Promised Land
EXTD=
EXTT0=
EXTT1=
EXTT2=
EXTT3=
EXTT4=
EXTT5=
EXTT6=
EXTT7=
EXTT8=
EXTT9=
EXTT10=
PLAYORDER=
